<svg width="151" height="43" viewBox="0 0 151 43" fill="none" xmlns="http://www.w3.org/2000/svg">
<path d="M17.194 11.809L17.517 11.866V32.5H12.786V7.42H19.322L30.57 28.016L30.247 28.092V7.42H34.978V32.5H28.404L17.194 11.809ZM43.892 25.774C43.93 26.4833 44.12 27.1167 44.462 27.674C44.804 28.2313 45.298 28.6683 45.944 28.985C46.6026 29.3017 47.388 29.46 48.3 29.46C49.1233 29.46 49.8453 29.3587 50.466 29.156C51.0993 28.9533 51.6313 28.7063 52.062 28.415C52.5053 28.111 52.8346 27.8197 53.05 27.541L55.045 30.505C54.6903 30.9483 54.2153 31.36 53.62 31.74C53.0373 32.1073 52.29 32.3987 51.378 32.614C50.4786 32.842 49.3513 32.956 47.996 32.956C46.286 32.956 44.785 32.6203 43.493 31.949C42.201 31.2777 41.194 30.3087 40.472 29.042C39.75 27.7753 39.389 26.268 39.389 24.52C39.389 23 39.712 21.632 40.358 20.416C41.004 19.1873 41.9413 18.2183 43.17 17.509C44.4113 16.7997 45.8996 16.445 47.635 16.445C49.269 16.445 50.6813 16.7617 51.872 17.395C53.0753 18.0157 54.0063 18.9277 54.665 20.131C55.3236 21.3343 55.653 22.8037 55.653 24.539C55.653 24.6403 55.6466 24.8493 55.634 25.166C55.634 25.47 55.6213 25.6727 55.596 25.774H43.892ZM51.131 22.791C51.1183 22.3857 50.9916 21.9487 50.751 21.48C50.523 21.0113 50.162 20.6123 49.668 20.283C49.174 19.9537 48.5153 19.789 47.692 19.789C46.8686 19.789 46.191 19.9473 45.659 20.264C45.1396 20.5807 44.747 20.9733 44.481 21.442C44.215 21.898 44.063 22.3477 44.025 22.791H51.131ZM70.9958 22.449L67.2338 32.5H62.6548L57.8478 16.901H62.9778L65.5998 27.313L69.3048 17.205H72.7058L76.3728 27.313L79.0138 16.901H84.1438L79.3558 32.5H74.7768L70.9958 22.449ZM93.7236 16.445C94.661 16.445 95.5286 16.5337 96.3266 16.711C97.1246 16.8757 97.796 17.0657 98.3406 17.281C98.898 17.4963 99.2653 17.68 99.4426 17.832L97.7896 20.739C97.5363 20.5363 97.0803 20.2957 96.4216 20.017C95.7756 19.7383 95.0536 19.599 94.2556 19.599C93.5336 19.599 92.9256 19.7257 92.4316 19.979C91.9376 20.2197 91.6906 20.587 91.6906 21.081C91.6906 21.575 91.9566 21.9677 92.4886 22.259C93.0206 22.5503 93.7616 22.8037 94.7116 23.019C95.5096 23.1837 96.295 23.437 97.0676 23.779C97.8403 24.1083 98.48 24.5897 98.9866 25.223C99.4933 25.8437 99.7466 26.6733 99.7466 27.712C99.7466 28.738 99.525 29.593 99.0816 30.277C98.651 30.9483 98.0746 31.4803 97.3526 31.873C96.6306 32.2657 95.839 32.5443 94.9776 32.709C94.1163 32.8737 93.2613 32.956 92.4126 32.956C91.3106 32.956 90.3416 32.8483 89.5056 32.633C88.6696 32.4303 87.9793 32.196 87.4346 31.93C86.9026 31.6513 86.5226 31.417 86.2946 31.227L87.9476 27.997C88.277 28.2883 88.8153 28.6113 89.5626 28.966C90.3226 29.308 91.1396 29.479 92.0136 29.479C92.9256 29.479 93.6413 29.3207 94.1606 29.004C94.6926 28.6873 94.9586 28.263 94.9586 27.731C94.9586 27.3383 94.832 27.0217 94.5786 26.781C94.3253 26.5277 93.977 26.3187 93.5336 26.154C93.0903 25.9893 92.571 25.8437 91.9756 25.717C91.431 25.603 90.8736 25.4383 90.3036 25.223C89.7336 24.995 89.2016 24.6973 88.7076 24.33C88.2136 23.9627 87.8146 23.5067 87.5106 22.962C87.2066 22.4047 87.0546 21.7397 87.0546 20.967C87.0546 19.979 87.3713 19.1557 88.0046 18.497C88.638 17.8257 89.4613 17.319 90.4746 16.977C91.488 16.6223 92.571 16.445 93.7236 16.445Z" fill="#B00000"/>
<path d="M104.152 7.42H108.902V32.5H104.152V7.42ZM118.851 11.809L119.174 11.866V32.5H114.443V7.42H120.979L132.227 28.016L131.904 28.092V7.42H136.635V32.5H130.061L118.851 11.809Z" fill="black"/>
</svg>
